<svg xmlns="http://www.w3.org/2000/svg" width="22" height="22" viewBox="0 0 22 22">
  <path id="insta" d="M161.5,79.238a1.172,1.172,0,1,1-1.657,1.657,1.791,1.791,0,0,1-.145-.178,1.065,1.065,0,0,1-.108-.206,1.109,1.109,0,0,1-.065-.215,1.205,1.205,0,0,1-.023-.229,1.19,1.19,0,0,1,.341-.828,1.336,1.336,0,0,1,.178-.145,1.178,1.178,0,0,1,1.479.145Zm-6.136,1.61a4.533,4.533,0,1,0,3.2,1.328A4.525,4.525,0,0,0,155.366,80.848Zm11,4.526A11.013,11.013,0,1,1,163.14,77.6,11,11,0,0,1,166.366,85.374Zm-1.4,0a9.607,9.607,0,1,0-2.814,6.782,9.6,9.6,0,0,0,2.814-6.782Z" transform="translate(-144.366 -74.374)" fill="#fff"/>
</svg>
